<?xml version="1.0" encoding="utf-8"?>
<!-- Generator: Adobe Illustrator 16.0.0, SVG Export Plug-In . SVG Version: 6.00 Build 0)  -->
<!DOCTYPE svg PUBLIC "-//W3C//DTD SVG 1.1//EN" "http://www.w3.org/Graphics/SVG/1.1/DTD/svg11.dtd">
<svg version="1.1" id="Livello_1" xmlns="http://www.w3.org/2000/svg" xmlns:xlink="http://www.w3.org/1999/xlink" x="0px" y="0px"
	 width="132.159px" height="151.347px" viewBox="0 0 132.159 151.347" style="enable-background:new 0 0 132.159 151.347;"
	 xml:space="preserve">
<style type="text/css">
<![CDATA[
	.st0{fill:#999999;}
]]>
</style>
<g>
	<path class="st0" d="M56.551,0C25.319,0,0,25.318,0,56.551c0,31.232,25.319,56.55,56.551,56.55
		c31.231,0,56.554-25.318,56.554-56.55C113.105,25.318,87.782,0,56.551,0z M56.551,96.181c-21.887,0-39.63-17.743-39.63-39.629
		c0-21.889,17.743-39.633,39.63-39.633c21.888,0,39.631,17.744,39.631,39.633C96.182,78.438,78.439,96.181,56.551,96.181z"/>
	<path class="st0" d="M131.055,134.22c1.841,2.394,1.326,5.875-1.15,7.783l-10.581,8.14c-2.478,1.902-5.975,1.509-7.816-0.885
		l-35.798-46.53c-1.841-2.395-1.324-5.877,1.151-7.78l10.58-8.141c2.476-1.908,5.976-1.509,7.816,0.883L131.055,134.22z"/>
</g>
</svg>
